#!OML:ASF I:\Actors\actors\Patient Classification 2\Patient 1\Session 1\actor1.ASF
:FULLY-SPECIFIED
:DEGREES
517
root 0.00579897 17.7084 3.65652 29.2223 -47.6789 -9.1576
lowerback 33.7849 -3.22252 -0.656405
upperback 6.99095 -4.68198 -0.532202
thorax -9.46 -2.2974 1.56666
lowerneck -17.0863 10.3574 13.9961
upperneck 16.2644 13.126 -12.576
head 9.7687 5.77082 -4.73292
rclavicle -7.95139e-014 4.45278e-014
rhumerus -37.9607 37.9981 -100.078
rradius 106.544
rwrist 10.1859
rhand -23.0284 -68.3099
rfingers 7.12502
rthumb 3.4157 -261.738
lclavicle -7.95139e-014 4.45278e-014
lhumerus 7.69331 -2.08276 83.127
lradius 90.7802
lwrist 77.7912
lhand -43.1454 -18.9487
lfingers 7.12502
lthumb -15.9983 10.4107
rfemur -20.2085 23.3499 7.52125
rtibia -29.7291
rfoot 18.1376 -12.2134
rtoes -0.966808
lfemur 7.35113 25.2814 -19.2421
ltibia -42.2561
lfoot 13.9739 25.4077
ltoes -15.8743
518
root -0.0176289 17.6991 3.64139 29.1654 -47.4615 -9.10176
lowerback 33.8114 -3.224 -0.728987
upperback 6.97484 -4.69661 -0.450308
thorax -9.47567 -2.30171 1.69833
lowerneck -17.1549 10.3115 13.6852
upperneck 16.3296 13.0634 -12.2301
head 9.7439 5.75308 -4.57045
rclavicle -2.38542e-014 4.13472e-014
rhumerus -37.1565 37.4638 -99.7627
rradius 103.502
rwrist 9.12823
rhand -22.5477 -67.2497
rfingers 7.12502
rthumb 3.8799 -262.806
lclavicle -2.38542e-014 4.13472e-014
lhumerus 9.03319 -0.669655 84.03
lradius 86.2577
lwrist 78.1924
lhand -43.3961 -18.7962
lfingers 7.12502
lthumb -16.2398 10.5437
rfemur -19.9829 23.1313 7.77162
rtibia -29.9283
rfoot 18.286 -11.945
rtoes -1.84714
lfemur 7.39564 25.3226 -19.1161
ltibia -42.324
lfoot 14.0002 25.2066
ltoes -16.1561
519
root -0.0415749 17.688 3.61978 29.0546 -47.2837 -9.13143
lowerback 33.9481 -3.13844 -0.95123
upperback 6.95187 -4.64606 -0.283206
thorax -9.52525 -2.27338 1.97977
lowerneck -17.263 10.2401 13.3561
upperneck 16.6616 12.9976 -11.9287
head 9.82241 5.72158 -4.42309
rclavicle 7.4743e-014 -1.59028e-014
rhumerus -35.6739 37.0816 -99.0271
rradius 99.7123
rwrist 8.37613
rhand -21.8406 -67.2444
rfingers 7.12502
rthumb 4.5627 -262.825
lclavicle 7.4743e-014 -1.59028e-014
lhumerus 10.8964 0.717432 84.8083
lradius 80.9167
lwrist 79.5255
lhand -44.4766 -18.7992
lfingers 7.12502
lthumb -17.2799 10.4526
rfemur -19.6379 22.9726 8.14044
rtibia -30.146
rfoot 18.4271 -11.7481
rtoes -2.40974
lfemur 7.58197 25.4754 -18.8874
ltibia -42.4238
lfoot 14.1053 24.9473
ltoes -16.6341
520
root -0.0616028 17.6781 3.59782 28.9311 -47.1096 -9.20604
lowerback 34.0791 -3.0736 -1.16785
upperback 6.96604 -4.62169 -0.120438
thorax -9.53193 -2.2592 2.26161
lowerneck -17.3012 10.1983 13.113
upperneck 17.0385 12.985 -11.7339
head 9.92711 5.71062 -4.32033
rclavicle 7.95139e-014 -2.54444e-014
rhumerus -33.6934 37.106 -98.0632
rradius 95.6331
rwrist 8.08203
rhand -20.4601 -67.7625
rfingers 7.12502
rthumb 5.89558 -262.34
lclavicle 7.95139e-014 -2.54444e-014
lhumerus 12.743 2.00268 85.2763
lradius 75.6488
lwrist 81.8973
lhand -46.3801 -19.3879
lfingers 7.12502
lthumb -19.1112 9.69311
rfemur -19.2821 22.8512 8.52622
rtibia -30.3263
rfoot 18.5721 -11.6859
rtoes -2.20365
lfemur 7.82579 25.5655 -18.5969
ltibia -42.5394
lfoot 14.2706 24.8
ltoes -17.0409
521
root -0.0755642 17.672 3.58234 28.7455 -46.925 -9.25386
lowerback 34.3366 -3.07589 -1.49513
upperback 6.98817 -4.70999 0.1396
thorax -9.55767 -2.29513 2.75202
lowerneck -17.2349 10.2803 12.9201
upperneck 17.1833 13.1861 -11.8127
head 9.98637 5.78135 -4.28615
rclavicle 6.36111e-014 -3.81667e-014
rhumerus -31.6756 37.8879 -97.1048
rradius 92.4809
rwrist 7.80608
rhand -19.4744 -68.7747
rfingers 7.12502
rthumb 6.84718 -261.356
lclavicle 6.36111e-014 -3.81667e-014
lhumerus 13.5121 3.18298 85.6086
lradius 73.2966
lwrist 83.9616
lhand -48.1775 -20.803
lfingers 7.12502
lthumb -20.839 8.09786
rfemur -18.9083 22.6922 8.90172
rtibia -30.4474
rfoot 18.6992 -11.6603
rtoes -1.723
lfemur 8.12684 25.4882 -18.3028
ltibia -42.6705
lfoot 14.4295 24.7501
ltoes -17.3508
522
root -0.0959017 17.6681 3.56442 28.763 -47.1058 -9.60924
lowerback 34.684 -2.91794 -1.68457
upperback 7.05516 -4.58679 0.180263
thorax -9.60328 -2.23821 2.86144
lowerneck -17.1001 10.3273 12.8026
upperneck 16.9962 13.2716 -11.774
head 9.89567 5.82589 -4.24195
rclavicle 1.7175e-013 -9.22361e-014
rhumerus -31.8766 38.1444 -96.8791
rradius 92.9378
rwrist 7.59265
rhand -19.0245 -69.1433
rfingers 7.12502
rthumb 7.28152 -261.002
lclavicle 1.7175e-013 -9.22361e-014
lhumerus 12.9394 3.2511 85.4112
lradius 74.4637
lwrist 83.6766
lhand -47.7795 -20.6489
lfingers 7.12502
lthumb -20.4565 8.29351
rfemur -18.6449 22.9372 9.30686
rtibia -30.5078
rfoot 18.8085 -11.6219
rtoes -1.30852
lfemur 8.55965 25.7701 -17.9041
ltibia -42.8163
lfoot 14.5709 24.775
ltoes -17.5194
523
root -0.109095 17.6643 3.55375 28.9834 -47.2042 -9.93117
lowerback 34.8562 -2.89328 -1.28719
upperback 7.11648 -4.45561 -0.0712033
thorax -9.65113 -2.18565 2.34213
lowerneck -16.7999 10.2756 12.81
upperneck 16.4606 13.1237 -11.4962
head 9.61127 5.80874 -4.17786
rclavicle -1.90833e-014 5.56597e-014
rhumerus -33.0342 37.8868 -97.4315
rradius 95.5557
rwrist 7.72945
rhand -21.1034 -68.6531
rfingers 7.12502
rthumb 5.27451 -261.433
lclavicle -1.90833e-014 5.56597e-014
lhumerus 11.5074 2.01558 84.6017
lradius 78.4087
lwrist 82.4828
lhand -46.5562 -19.9115
lfingers 7.12502
lthumb -19.2806 9.15267
rfemur -18.6441 23.0732 9.59183
rtibia -30.5194
rfoot 18.8975 -11.5536
rtoes -1.21541
lfemur 8.70833 25.8551 -17.6162
ltibia -42.9415
lfoot 14.7169 24.9183
ltoes -17.3328
